<svg id="Layer_3" enable-background="new 0 0 64 64" height="512" viewBox="0 0 64 64" width="512" xmlns="http://www.w3.org/2000/svg"><g><path d="m2 4h46v56h-46z" fill="#88929f"/><path d="m6 8h38v46h-38z" fill="#c7e2fb"/><path d="m6 46.988c19.927-.246 36-15.14 36-33.488 0-1.874-.176-3.71-.498-5.5h-35.502z" fill="#ebf7fe"/><path d="m42 46h20v16h-20z" fill="#c18e5c"/><path d="m42 58.652c8.399-1.291 15.371-6.126 18.767-12.652h-18.767z" fill="#cda57d"/><path d="m14 2h22v8h-22z" fill="#c1c8d1"/><g fill="#4472b0"><path d="m10 14h6v6h-6z"/><path d="m10 24h6v6h-6z"/><path d="m10 34h6v6h-6z"/><path d="m10 44h6v6h-6z"/></g><g><path d="m10.757 14h8.485v2h-8.485z" fill="#c1c8d1" transform="matrix(.707 -.707 .707 .707 -6.213 15)"/></g><g><path d="m10.757 24h8.485v2h-8.485z" fill="#c1c8d1" transform="matrix(.707 -.707 .707 .707 -13.284 17.929)"/></g><g><path d="m10.757 34h8.485v2h-8.485z" fill="#c1c8d1" transform="matrix(.707 -.707 .707 .707 -20.355 20.858)"/></g><g><path d="m10.757 44h8.485v2h-8.485z" fill="#c1c8d1" transform="matrix(.707 -.707 .707 .707 -27.426 23.787)"/></g><g><path d="m21 13h18v2h-18z" fill="#c1c8d1"/></g><g><path d="m21 19h18v2h-18z" fill="#c1c8d1"/></g><g><path d="m21 23h18v2h-18z" fill="#c1c8d1"/></g><g><path d="m21 29h8v2h-8z" fill="#c1c8d1"/></g><g><path d="m21 33h8v2h-8z" fill="#c1c8d1"/></g><g><path d="m21 39h8v2h-8z" fill="#c1c8d1"/></g><g><path d="m55 57h4v2h-4z" fill="#d7b797"/></g><path d="m50 46h4v6h-4z" fill="#d7b797"/><path d="m22 46h20v16h-20z" fill="#c18e5c"/><path d="m22 58.652c8.399-1.291 15.371-6.126 18.767-12.652h-18.767z" fill="#cda57d"/><g><path d="m35 57h4v2h-4z" fill="#d7b797"/></g><path d="m30 46h4v6h-4z" fill="#d7b797"/><path d="m32 30h20v16h-20z" fill="#c18e5c"/><path d="m32 42.652c8.399-1.291 15.371-6.126 18.767-12.652h-18.767z" fill="#cda57d"/><g><path d="m45 41h4v2h-4z" fill="#d7b797"/></g><path d="m40 30h4v6h-4z" fill="#d7b797"/></g></svg>